REM Ripping Tool: trurip

FILE "Magical Saurus Tour - Saishin Kyouryuu Zukai Dai Jiten (1990)(Victor)(JP).img" BINARY
  TRACK 01 AUDIO
    INDEX 01 00:00:00
  TRACK 02 MODE1/2352
    INDEX 00 00:59:15
    INDEX 01 01:02:16
  TRACK 03 AUDIO
    INDEX 00 15:07:25
    INDEX 01 15:09:25
  TRACK 04 MODE1/2352
    INDEX 00 18:04:42
    INDEX 01 18:07:44

REM DISC HASHES
REM CRC32 : bd9e26a9
REM MD5   : c503f221989dec33103c8ebaa70b74ec
REM SHA1  : 937d9665d759350e200da88d71daf10de70bb56a

REM Gap Append Method: Prev [crc32]
REM Trk 01: 73dd48cc
REM Trk 02: 973e88bc
REM Trk 03: ff07a368
REM Trk 04: b423c19b

REM Gap Append Method: Prev [md5]
REM Trk 01: e32fc684147d1914d9bc5638a22e52c1
REM Trk 02: 45666a6212a2661a6a869ae451faeeee
REM Trk 03: 2fc633cc624325ae4f767be1c4eef3da
REM Trk 04: 8c45e9264f61b9bf569cb4396f1beca8

REM Gap Append Method: Prev [sha1]
REM Trk 01: a64c5eabbbe666c5e44c92d5ff22fc492088d926
REM Trk 02: 26871c642fc2d58b7ea401c6bb2b0a050646b1af
REM Trk 03: fc0e07d68068200cc96e6edaf659860a4747629e
REM Trk 04: d8ddd82be9052e92c6660c55dd170d45dccaaf76

REM Gap Append Method: None [crc32]
REM Trk 01: f15767a5
REM Trk 02: 84a7560e
REM Trk 03: 9e393ef4
REM Trk 04: b423c19b
REM Gap 02: c0a94a18
REM Gap 03: 7abe247f
REM Gap 04: 203e1e6c

REM Gap Append Method: None [md5]
REM Trk 01: e6254132840411c57df72bdec0184984
REM Trk 02: 4bd79661d4469c13d5c692076cda986c
REM Trk 03: 1073ec79e7c741eef9a4b931d2e8aab2
REM Trk 04: 8c45e9264f61b9bf569cb4396f1beca8
REM Gap 02: df7e100ad6520f540e5b6d3fa1fc8ae9
REM Gap 03: 9df204fbc98bb8965081cb30a89715fc
REM Gap 04: f1c3d59bbad91ae829061c60414ab9cf

REM Gap Append Method: None [sha1]
REM Trk 01: 2d9750b651df2aa1db63999db4ba6e3bb4d5967a
REM Trk 02: fd413c11e7565ee44b843f47bc8bb88f6a93ae7c
REM Trk 03: ec2d8c9c1e5c088b882f87bcce39cfcfc825287f
REM Trk 04: d8ddd82be9052e92c6660c55dd170d45dccaaf76
REM Gap 02: 48e058b8a9746d281861f6e1484b490493e39b57
REM Gap 03: cbe29e0bd725ef1194f8c47619dd42078e841de2
REM Gap 04: 181892eebdae7c9bbb94d10e0dccb1080e8ac730

REM Gap Append Method: Next [crc32]
REM Trk 01: f15767a5
REM Trk 02: 5b4bf392
REM Trk 03: b4c7f0c8
REM Trk 04: d5ff6229

REM Gap Append Method: Next [md5]
REM Trk 01: e6254132840411c57df72bdec0184984
REM Trk 02: 60343daf42526c69c01609c88154694e
REM Trk 03: afccc36f2b6bf51b091c2d39d0c5eb42
REM Trk 04: 02c38975a91b6d4893a9ab62485394f7

REM Gap Append Method: Next [sha1]
REM Trk 01: 2d9750b651df2aa1db63999db4ba6e3bb4d5967a
REM Trk 02: ed41dfbd8784507c91fa3191edfb99575930e503
REM Trk 03: 2631d26caea7aa0901861415cf558627c1a7514f
REM Trk 04: 934f7124a66a534eab3f62c4a26b403f42ed7ff4

